<svg xmlns="http://www.w3.org/2000/svg" viewBox="0 0 160 160" fill="none">
  <!-- Outer ring -->
  <circle cx="80" cy="80" r="74" stroke="currentColor" stroke-width="5"/>
  <!-- Inner ring (frame) -->
  <circle cx="80" cy="80" r="60" stroke="currentColor" stroke-width="2"/>
  <!-- Camera aperture blades (6) -->
  <path d="M80 28 C88 28 94 34 94 42 L80 80 Z" fill="currentColor" opacity="0.9"/>
  <path d="M80 28 C72 28 66 34 66 42 L80 80 Z" fill="currentColor" opacity="0.6"/>
  <path d="M120 54 C124 61 122 70 116 74 L80 80 Z" fill="currentColor" opacity="0.9"/>
  <path d="M120 106 C124 99 122 90 116 86 L80 80 Z" fill="currentColor" opacity="0.6"/>
  <path d="M80 132 C72 132 66 126 66 118 L80 80 Z" fill="currentColor" opacity="0.9"/>
  <path d="M80 132 C88 132 94 126 94 118 L80 80 Z" fill="currentColor" opacity="0.6"/>
  <path d="M40 106 C36 99 38 90 44 86 L80 80 Z" fill="currentColor" opacity="0.9"/>
  <path d="M40 54 C36 61 38 70 44 74 L80 80 Z" fill="currentColor" opacity="0.6"/>
  <!-- Centre lens -->
  <circle cx="80" cy="80" r="20" fill="currentColor"/>
  <circle cx="80" cy="80" r="12" fill="none" stroke="white" stroke-width="2.5"/>
  <circle cx="80" cy="80" r="5" fill="white" opacity="0.4"/>
</svg>
