<svg xmlns="http://www.w3.org/2000/svg" viewBox="0 0 130 160" fill="none">
  <!-- Rounded-bottom badge (pill bottom, flat top corners) -->
  <path stroke="currentColor" stroke-width="5" stroke-linejoin="round"
    d="M15 15 H115 V95 C115 133 90 152 65 158 C40 152 15 133 15 95 Z"/>
  <!-- Inner border -->
  <path stroke="currentColor" stroke-width="1.5" stroke-linejoin="round"
    d="M26 26 H104 V94 C104 124 84 141 65 147 C46 141 26 124 26 94 Z"/>
  <!-- Fork (left) -->
  <line x1="52" y1="42" x2="52" y2="68" stroke="currentColor" stroke-width="4" stroke-linecap="round"/>
  <line x1="46" y1="42" x2="46" y2="56" stroke="currentColor" stroke-width="3" stroke-linecap="round"/>
  <line x1="58" y1="42" x2="58" y2="56" stroke="currentColor" stroke-width="3" stroke-linecap="round"/>
  <!-- Fork stem -->
  <line x1="52" y1="68" x2="52" y2="108" stroke="currentColor" stroke-width="4" stroke-linecap="round"/>
  <!-- Knife (right) -->
  <path d="M78 42 C84 42 86 50 86 58 L78 66 L78 42 Z" fill="currentColor"/>
  <line x1="78" y1="66" x2="78" y2="108" stroke="currentColor" stroke-width="4" stroke-linecap="round"/>
  <!-- Small decorative dots -->
  <circle cx="65" cy="76" r="4" fill="currentColor"/>
</svg>
